<?xml version="1.0" encoding="UTF-8"?><svg xmlns="http://www.w3.org/2000/svg" xmlns:xlink="http://www.w3.org/1999/xlink" viewBox="0 0 689.42 185.16"><defs><style>.e{fill:url(#d);}.f{fill:#fece46;}.g{fill:#1d1d1b;}.h{fill:#555554;}</style><linearGradient id="d" x1="613.6" y1="149.92" x2="667.72" y2="56.17" gradientTransform="matrix(1, 0, 0, 1, 0, 0)" gradientUnits="userSpaceOnUse"><stop offset="0" stop-color="#fece46"/><stop offset=".02" stop-color="#fece46"/><stop offset=".52" stop-color="#fece46"/><stop offset=".64" stop-color="#f8c03c"/><stop offset=".84" stop-color="#f1b232"/><stop offset="1" stop-color="#efad2f"/></linearGradient></defs><g id="a"/><g id="b"><g id="c"><g><g><path class="g" d="M0,158.04H11.91c3.04,0,5.43,.84,6.94,2.35,1.18,1.18,1.78,2.62,1.78,4.4v.08c0,3.19-1.82,4.9-3.79,5.92,3.11,1.06,5.27,2.85,5.27,6.45v.08c0,4.74-3.91,7.29-9.83,7.29H0v-26.56Zm10.97,11.19c3,0,5.01-1.18,5.01-3.6v-.08c0-2.09-1.67-3.38-4.67-3.38H4.59v7.06h6.37Zm1.37,11.23c3.19,0,5.12-1.25,5.12-3.64v-.08c0-2.24-1.78-3.57-5.46-3.57H4.59v7.29h7.74Z"/><path class="g" d="M34.07,174.13l-10.55-16.09h5.5l7.44,11.76,7.51-11.76h5.35l-10.55,15.97v10.59h-4.7v-10.47Z"/><path class="g" d="M63.85,156.72h14.3c3.5,0,5.97,.88,7.61,2.51,1.12,1.12,1.79,2.59,1.79,4.5v.08c0,3.23-1.83,5.14-4.3,6.21,3.39,1.12,5.54,3.03,5.54,6.81v.08c0,4.78-3.9,7.69-10.55,7.69h-14.38v-27.88Zm12.39,11.11c2.35,0,3.66-.8,3.66-2.43v-.08c0-1.51-1.19-2.39-3.5-2.39h-5.02v4.9h4.86Zm1.12,10.55c2.35,0,3.7-.92,3.7-2.55v-.08c0-1.51-1.19-2.51-3.78-2.51h-5.89v5.14h5.97Z"/><path class="g" d="M92.33,156.72h13.18c4.26,0,7.21,1.12,9.08,3.03,1.63,1.59,2.47,3.74,2.47,6.49v.08c0,4.26-2.27,7.09-5.73,8.56l6.65,9.72h-8.92l-5.62-8.44h-3.39v8.44h-7.73v-27.88Zm12.82,13.38c2.63,0,4.14-1.27,4.14-3.31v-.08c0-2.19-1.59-3.31-4.18-3.31h-5.06v6.69h5.1Z"/><path class="g" d="M120.01,170.74v-.08c0-8.01,6.45-14.5,15.05-14.5s14.97,6.41,14.97,14.42v.08c0,8.01-6.45,14.5-15.05,14.5s-14.97-6.41-14.97-14.42Zm22.14,0v-.08c0-4.02-2.91-7.53-7.17-7.53s-7.05,3.43-7.05,7.45v.08c0,4.02,2.91,7.53,7.13,7.53s7.09-3.43,7.09-7.45Z"/><path class="g" d="M161.91,156.53h7.45l11.87,28.08h-8.28l-2.03-4.98h-10.75l-1.99,4.98h-8.12l11.87-28.08Zm6.77,17.08l-3.11-7.93-3.15,7.93h6.25Z"/><path class="g" d="M183.94,156.72h10.75c9.96,0,15.73,5.73,15.73,13.78v.08c0,8.04-5.85,14.02-15.89,14.02h-10.59v-27.88Zm10.87,21.03c4.62,0,7.69-2.55,7.69-7.05v-.08c0-4.46-3.07-7.05-7.69-7.05h-3.15v14.18h3.15Z"/><path class="g" d="M210.95,156.72h8.16l4.86,16.13,5.38-16.21h6.65l5.38,16.21,4.86-16.13h8.01l-9.32,28.08h-6.73l-5.62-16.05-5.58,16.05h-6.73l-9.32-28.08Z"/><path class="g" d="M257.47,156.72h7.76v27.88h-7.76v-27.88Z"/><path class="g" d="M270.34,156.72h7.21l11.47,14.74v-14.74h7.65v27.88h-6.77l-11.91-15.29v15.29h-7.65v-27.88Z"/><path class="g" d="M300.65,170.74v-.08c0-8.12,6.37-14.5,15.01-14.5,4.9,0,8.36,1.51,11.31,4.06l-4.54,5.46c-1.99-1.67-3.98-2.63-6.73-2.63-4.02,0-7.13,3.38-7.13,7.65v.08c0,4.5,3.15,7.73,7.57,7.73,1.87,0,3.3-.4,4.46-1.16v-3.39h-5.5v-5.65h12.83v12.54c-2.95,2.43-7.05,4.3-12.11,4.3-8.68,0-15.17-5.97-15.17-14.42Z"/><path class="g" d="M343.27,156.72h13.18c4.26,0,7.21,1.12,9.08,3.03,1.63,1.59,2.47,3.74,2.47,6.49v.08c0,4.26-2.27,7.09-5.73,8.56l6.65,9.72h-8.92l-5.61-8.44h-3.39v8.44h-7.73v-27.88Zm12.82,13.38c2.63,0,4.14-1.27,4.14-3.31v-.08c0-2.19-1.59-3.31-4.18-3.31h-5.06v6.69h5.1Z"/><path class="g" d="M371.91,156.72h22.42v6.57h-14.77v4.22h13.38v6.09h-13.38v4.42h14.97v6.57h-22.62v-27.88Z"/><path class="g" d="M397.32,170.74v-.08c0-8.12,6.25-14.5,14.7-14.5,5.69,0,9.36,2.39,11.83,5.81l-5.81,4.5c-1.59-1.99-3.42-3.26-6.09-3.26-3.9,0-6.65,3.3-6.65,7.37v.08c0,4.18,2.75,7.45,6.65,7.45,2.91,0,4.62-1.35,6.29-3.38l5.81,4.14c-2.63,3.62-6.17,6.29-12.34,6.29-7.96,0-14.38-6.09-14.38-14.42Z"/><path class="g" d="M427.36,156.72h13.18c4.26,0,7.21,1.12,9.08,3.03,1.63,1.59,2.47,3.74,2.47,6.49v.08c0,4.26-2.27,7.09-5.73,8.56l6.65,9.72h-8.92l-5.62-8.44h-3.38v8.44h-7.73v-27.88Zm12.82,13.38c2.63,0,4.14-1.27,4.14-3.31v-.08c0-2.19-1.59-3.31-4.18-3.31h-5.06v6.69h5.1Z"/><path class="g" d="M455.64,172.38v-15.65h7.84v15.49c0,4.02,2.03,5.93,5.14,5.93s5.14-1.83,5.14-5.73v-15.69h7.85v15.45c0,9-5.14,12.94-13.06,12.94s-12.9-4.02-12.9-12.74Z"/><path class="g" d="M486.35,156.72h7.77v27.88h-7.77v-27.88Z"/><path class="g" d="M506.02,163.5h-8.37v-6.77h24.45v6.77h-8.37v21.11h-7.72v-21.11Z"/><path class="g" d="M525.5,156.72h8.16l6.65,10.79,6.65-10.79h8.16v27.88h-7.69v-16.01l-7.13,10.91h-.16l-7.09-10.83v15.93h-7.57v-27.88Z"/><path class="g" d="M560.07,156.72h22.42v6.57h-14.77v4.22h13.38v6.09h-13.38v4.42h14.97v6.57h-22.62v-27.88Z"/><path class="g" d="M586.64,156.72h7.21l11.47,14.74v-14.74h7.65v27.88h-6.77l-11.91-15.29v15.29h-7.65v-27.88Z"/><path class="g" d="M624.72,163.5h-8.37v-6.77h24.45v6.77h-8.37v21.11h-7.72v-21.11Z"/></g><g><path class="h" d="M141.53,31.18c-7.64-8.02-18.5-12.08-32.28-12.08s-24.67,4.07-32.38,12.09c-.12,.12-.22,.25-.34,.37-.11-.12-.22-.25-.34-.37-5.11-5.37-11.67-8.95-19.58-10.74,0-.01,.01-.02,.02-.03-.2-.04-.42-.07-.62-.11-3.74-.8-7.77-1.2-12.1-1.2-.12,0-.24,0-.36,0-.03,0-.06,0-.09,0-15.09,0-28.76,4.11-43.26,13.5V118.22H22.42V61.73c0-8.05,1.69-13.95,5.03-17.54,3.35-3.6,8.9-5.42,16.49-5.42s12.94,1.82,16.29,5.42c3.33,3.58,5.03,9.48,5.03,17.54v56.49h22.49V61.73c0-8.05,1.69-13.95,5.03-17.54,3.35-3.6,8.9-5.42,16.49-5.42s12.94,1.82,16.29,5.42c3.33,3.58,5.03,9.48,5.03,17.54v56.49h22.48v-53.43c0-14.28-3.88-25.58-11.53-33.61Z"/><path class="h" d="M215.51,118.22c13.78,0,24.67-4.07,32.38-12.09,7.71-8.03,11.62-19.33,11.62-33.6V19.1h-22.48v56.49c0,8.05-1.69,13.95-5.03,17.54-3.35,3.6-8.9,5.42-16.49,5.42s-12.94-1.82-16.29-5.42c-3.33-3.58-5.03-9.48-5.03-17.54V19.1h-22.48v53.43c0,14.28,3.88,25.58,11.53,33.61,7.64,8.02,18.5,12.08,32.28,12.08Z"/><path class="h" d="M369.04,68.59c0-15.93-3.96-28.32-11.78-36.83h0c-7.81-8.49-19.18-12.8-33.8-12.8s-25.99,4.31-33.8,12.8c-7.82,8.51-11.78,20.9-11.78,36.83s3.96,28.33,11.78,36.83c7.81,8.49,19.18,12.8,33.8,12.8s25.99-4.31,33.8-12.8c7.82-8.5,11.78-20.9,11.78-36.83Zm-28.1,24.86c-3.77,4.32-9.63,6.51-17.43,6.51s-13.68-2.19-17.48-6.51c-3.78-4.29-5.7-12.64-5.7-24.82s1.92-20.54,5.7-24.86c3.8-4.35,9.68-6.55,17.48-6.55s13.66,2.21,17.43,6.56c3.75,4.33,5.65,12.69,5.65,24.86s-1.9,20.52-5.65,24.82Z"/><path class="h" d="M561.37,31.76c-7.81-8.49-19.18-12.8-33.8-12.8s-25.99,4.31-33.8,12.8c-7.82,8.51-11.78,20.9-11.78,36.83s3.96,28.33,11.78,36.83c7.81,8.49,19.18,12.8,33.8,12.8s25.99-4.31,33.8-12.8c7.82-8.5,11.78-20.9,11.78-36.83s-3.96-28.32-11.78-36.83h0Zm-16.32,61.69c-3.77,4.32-9.63,6.51-17.43,6.51s-13.68-2.19-17.48-6.51c-3.78-4.29-5.7-12.64-5.7-24.82s1.92-20.54,5.7-24.86c3.8-4.35,9.68-6.55,17.48-6.55s13.66,2.21,17.43,6.56c3.75,4.33,5.65,12.69,5.65,24.86s-1.9,20.52-5.65,24.82Z"/><polygon class="h" points="451.04 19.13 425.8 87.35 399.83 19.13 375.5 19.13 413.41 118.22 437.65 118.22 475.57 19.13 451.04 19.13"/><polygon class="f" points="591.9 137.4 640.18 68.7 591.9 0 641.13 0 689.42 68.7 641.13 137.4 591.9 137.4"/><polyline class="e" points="689.42 68.7 641.13 137.4 591.9 137.4 640.18 68.7"/></g></g></g></g></svg>