<?xml version="1.0" encoding="utf-8"?>
<!-- Generator: Adobe Illustrator 26.3.1, SVG Export Plug-In . SVG Version: 6.00 Build 0)  -->
<svg version="1.1" id="Laag_1" xmlns="http://www.w3.org/2000/svg" xmlns:xlink="http://www.w3.org/1999/xlink" x="0px" y="0px"
	 viewBox="0 0 689.4 185.2" style="enable-background:new 0 0 689.4 185.2;" xml:space="preserve">
<style type="text/css">
	.st0{fill:#5E5EAA;}
	.st1{fill:#FECE46;}
	.st2{fill:url(#SVGID_1_);}
</style>
<g id="a">
</g>
<g id="b">
	<g id="c">
		<g>
			<g>
				<path class="st0" d="M141.5,51.2c-7.6-8-18.5-12.1-32.3-12.1s-24.7,4.1-32.4,12.1c-0.1,0.1-0.2,0.2-0.3,0.4
					c-0.1-0.1-0.2-0.2-0.3-0.4c-5.1-5.4-11.7-9-19.6-10.7c0,0,0,0,0,0c-0.2,0-0.4-0.1-0.6-0.1c-3.7-0.8-7.8-1.2-12.1-1.2
					c-0.1,0-0.2,0-0.4,0c0,0-0.1,0-0.1,0c-15.1,0-28.8,4.1-43.3,13.5v85.6h22.2V81.7c0-8,1.7-13.9,5-17.5c3.4-3.6,8.9-5.4,16.5-5.4
					s12.9,1.8,16.3,5.4c3.3,3.6,5,9.5,5,17.5v56.5h22.5V81.7c0-8,1.7-13.9,5-17.5c3.3-3.6,8.9-5.4,16.5-5.4s12.9,1.8,16.3,5.4
					c3.3,3.6,5,9.5,5,17.5v56.5h22.5V84.8C153.1,70.5,149.2,59.2,141.5,51.2L141.5,51.2z"/>
				<path class="st0" d="M215.5,138.2c13.8,0,24.7-4.1,32.4-12.1c7.7-8,11.6-19.3,11.6-33.6V39.1H237v56.5c0,8.1-1.7,13.9-5,17.5
					c-3.4,3.6-8.9,5.4-16.5,5.4s-12.9-1.8-16.3-5.4c-3.3-3.6-5-9.5-5-17.5V39.1h-22.5v53.4c0,14.3,3.9,25.6,11.5,33.6
					C190.9,134.2,201.7,138.2,215.5,138.2L215.5,138.2z"/>
				<path class="st0" d="M369,88.6c0-15.9-4-28.3-11.8-36.8l0,0c-7.8-8.5-19.2-12.8-33.8-12.8s-26,4.3-33.8,12.8
					c-7.8,8.5-11.8,20.9-11.8,36.8s4,28.3,11.8,36.8c7.8,8.5,19.2,12.8,33.8,12.8s26-4.3,33.8-12.8C365.1,116.9,369,104.5,369,88.6z
					 M340.9,113.4c-3.8,4.3-9.6,6.5-17.4,6.5s-13.7-2.2-17.5-6.5c-3.8-4.3-5.7-12.6-5.7-24.8s1.9-20.5,5.7-24.9
					c3.8-4.3,9.7-6.5,17.5-6.5s13.7,2.2,17.4,6.6c3.8,4.3,5.6,12.7,5.6,24.9S344.7,109.2,340.9,113.4L340.9,113.4z"/>
				<path class="st0" d="M561.4,51.8c-7.8-8.5-19.2-12.8-33.8-12.8s-26,4.3-33.8,12.8C486,60.3,482,72.7,482,88.6s4,28.3,11.8,36.8
					c7.8,8.5,19.2,12.8,33.8,12.8s26-4.3,33.8-12.8c7.8-8.5,11.8-20.9,11.8-36.8S569.2,60.3,561.4,51.8
					C561.4,51.8,561.4,51.8,561.4,51.8z M545,113.4c-3.8,4.3-9.6,6.5-17.4,6.5s-13.7-2.2-17.5-6.5c-3.8-4.3-5.7-12.6-5.7-24.8
					s1.9-20.5,5.7-24.9c3.8-4.3,9.7-6.5,17.5-6.5s13.7,2.2,17.4,6.6c3.8,4.3,5.7,12.7,5.7,24.9S548.8,109.2,545,113.4L545,113.4z"/>
				<polygon class="st0" points="451,39.1 425.8,107.3 399.8,39.1 375.5,39.1 413.4,138.2 437.6,138.2 475.6,39.1 				"/>
				<polygon class="st1" points="591.9,157.4 640.2,88.7 591.9,20 641.1,20 689.4,88.7 641.1,157.4 				"/>
				
					<linearGradient id="SVGID_1_" gradientUnits="userSpaceOnUse" x1="613.5992" y1="18.0735" x2="667.7208" y2="111.8265" gradientTransform="matrix(1 0 0 -1 0 188)">
					<stop  offset="0" style="stop-color:#FECE46"/>
					<stop  offset="2.000000e-02" style="stop-color:#FECE46"/>
					<stop  offset="0.52" style="stop-color:#FECE46"/>
					<stop  offset="0.64" style="stop-color:#F8C03C"/>
					<stop  offset="0.84" style="stop-color:#F1B232"/>
					<stop  offset="1" style="stop-color:#EFAD2F"/>
				</linearGradient>
				<polyline class="st2" points="689.4,88.7 641.1,157.4 591.9,157.4 640.2,88.7 				"/>
			</g>
		</g>
	</g>
</g>
</svg>
