<?xml version="1.0" encoding="utf-8"?>
<!-- Generator: Adobe Illustrator 26.3.1, SVG Export Plug-In . SVG Version: 6.00 Build 0)  -->
<svg version="1.1" id="Laag_1" xmlns="http://www.w3.org/2000/svg" xmlns:xlink="http://www.w3.org/1999/xlink" x="0px" y="0px"
	 viewBox="0 0 1170.7 375" style="enable-background:new 0 0 1170.7 375;" xml:space="preserve">
<style type="text/css">
	.st0{fill:#5E5EAA;}
	.st1{fill:url(#SVGID_1_);}
	.st2{fill:#FFCC51;}
</style>
<g id="a">
</g>
<g id="b">
	<g id="c">
		<g>
			<g>
				<path class="st0" d="M530.7,49.1H484v266h-49v-266h-47v-49h142.7L530.7,49.1L530.7,49.1z"/>
				<path class="st0" d="M623.6,0.5l61,315.4h-49.8l-15.9-79.3h-41.6L561,315.8h-49.8L573.8,0.1L623.6,0.5z M587,187.5h22.5
					l-11.3-56.8L587,187.5L587,187.5z"/>
				<path class="st0" d="M749.2,266.5h75v49h-124V0.1h49V266.5z"/>
				<path class="st0" d="M1015.5,0.1l-74.3,115.5l71.5,199.9h-52.1l-52.9-147.8l-11.3,17.1v130.6h-49V0.1h49v94.1l60.7-94.1H1015.5
					L1015.5,0.1z"/>
				<path class="st0" d="M1108.1,137.7c7,6,14.2,12.4,21.8,19.4s14.3,14.7,20.4,23.1c6.1,8.4,11.1,17.8,15,28.2
					c3.9,10.4,5.7,21.9,5.4,34.6c-0.5,14.3-3.4,25.7-8.8,34.4c-5.3,8.7-10.7,15.2-16.1,19.6c-14,11.9-31.6,17.9-52.9,17.9
					c-10.6,0-20.7-1.9-30.1-5.8c-9.5-3.9-17.7-9.3-24.7-16.1s-12.6-14.8-16.7-23.9c-4.2-9.1-6.2-18.8-6.2-29.2h49
					c0,7.3,2.8,13.4,8.6,18.5c5.7,5.1,12.4,7.6,20.2,7.6c7,0,12.4-0.9,16.1-2.7c3.8-1.8,6.5-4,8.4-6.6c1.8-2.6,2.9-5.2,3.3-8
					s0.7-5,1-6.8c0-6.7-1-12.9-3.1-18.5c-2.1-5.6-5.1-10.9-8.9-15.9c-3.9-5.1-8.7-10.2-14.4-15.4c-5.7-5.2-12.1-10.8-19.1-16.7
					c-7-6-14.1-12.4-21.4-19.2s-13.9-14.5-19.8-22.9c-6-8.4-10.8-17.7-14.6-27.8c-3.8-10.1-5.6-21.4-5.6-33.8
					c0-10.1,2.1-19.5,6.2-28.2c4.1-8.7,9.7-16.3,16.7-22.8c7-6.5,15.2-11.5,24.7-15.2c9.5-3.6,19.6-5.4,30.5-5.4s20.7,1.9,30.1,5.8
					c9.5,3.9,17.7,9.3,24.7,16.1s12.6,14.8,16.7,23.9c4.1,9.1,6.2,18.8,6.2,29.2h-49c0-7.2-2.9-13.4-8.6-18.5
					c-5.7-5.1-12.4-7.6-20.2-7.6c-8.3,0-15.2,2.2-20.6,6.6c-5.4,4.4-8.3,9.8-8.6,16.3c0,12.7,3.9,23.9,11.9,33.6
					C1083.5,115.4,1094.3,126.1,1108.1,137.7L1108.1,137.7z"/>
			</g>
			<g>
				
					<linearGradient id="SVGID_1_" gradientUnits="userSpaceOnUse" x1="0" y1="87.5" x2="379.02" y2="87.5" gradientTransform="matrix(1 0 0 -1 0 376)">
					<stop  offset="0" style="stop-color:#FFCC51"/>
					<stop  offset="2.000000e-02" style="stop-color:#FFCC51"/>
					<stop  offset="0.52" style="stop-color:#FFCC51"/>
					<stop  offset="0.63" style="stop-color:#F9C049"/>
					<stop  offset="0.83" style="stop-color:#F2B23F"/>
					<stop  offset="1" style="stop-color:#F0AD3C"/>
				</linearGradient>
				<path class="st1" d="M0,374.4V202.6h181v171.8h-58.2V232.7H58.2v141.7H0z M199.4,374.4h58.2V233.2h30c8.9,0,16.7,3.2,23.3,9.7
					c6.6,6.5,9.9,14.3,9.9,23.5v108H379V283c0-12-2.2-37.6-6.5-48.1c-4.3-10.5-10.2-23.2-17.5-31.5c0.2-0.3,0.5-0.6,0.7-0.8H199.4
					V374.4L199.4,374.4z"/>
				<path class="st2" d="M181,202.6H0V0h58.2v174.5h64.6V0H181L181,202.6L181,202.6z M355.7,202.6H199.4V0.5h91.9
					c12,0,23.2,2.3,33.7,6.9c10.5,4.6,19.6,10.9,27.5,18.9c7.9,8,14,17.4,18.5,28.2c4.5,10.8,6.7,22.3,6.7,34.6v54.3
					c0,11.7-2,22.6-6,32.8C367.8,186,362.5,194.8,355.7,202.6L355.7,202.6z M319.5,89.1c0-8.3-2.7-15.5-8.1-21.5
					c-5.4-6-12.1-9-20.1-9h-33.7v115.9h33.7c8,0,14.7-2.9,20.1-8.8c5.4-5.8,8.1-12.9,8.1-21.2C319.5,144.5,319.5,89.1,319.5,89.1z"
					/>
			</g>
			<g>
				<path class="st0" d="M435.4,344h13.6c3.5,0,6.2,1,7.9,2.7c1.4,1.4,2,3,2,5v0.1c0,3.6-2.1,5.6-4.3,6.8c3.6,1.2,6,3.2,6,7.4v0.1
					c0,5.4-4.5,8.3-11.2,8.3h-14.1L435.4,344L435.4,344z M448,356.8c3.4,0,5.7-1.4,5.7-4.1v-0.1c0-2.4-1.9-3.9-5.3-3.9h-7.7v8.1
					L448,356.8L448,356.8z M449.5,369.6c3.6,0,5.9-1.4,5.9-4.2v-0.1c0-2.6-2-4.1-6.2-4.1h-8.5v8.3H449.5z"/>
				<path class="st0" d="M474.4,362.4L462.3,344h6.3l8.5,13.5l8.6-13.5h6.1l-12.1,18.3v12.1h-5.4L474.4,362.4L474.4,362.4z"/>
				<path class="st0" d="M508.4,342.5h16.3c4,0,6.8,1,8.7,2.9c1.3,1.3,2,3,2,5.1v0.1c0,3.7-2.1,5.9-4.9,7.1c3.9,1.3,6.3,3.5,6.3,7.8
					v0.1c0,5.5-4.5,8.8-12.1,8.8h-16.4V342.5L508.4,342.5z M522.6,355.2c2.7,0,4.2-0.9,4.2-2.8v-0.1c0-1.7-1.4-2.7-4-2.7H517v5.6
					H522.6z M523.9,367.3c2.7,0,4.2-1,4.2-2.9v-0.1c0-1.7-1.4-2.9-4.3-2.9H517v5.9H523.9z"/>
				<path class="st0" d="M541,342.5h15.1c4.9,0,8.2,1.3,10.4,3.5c1.9,1.8,2.8,4.3,2.8,7.4v0.1c0,4.9-2.6,8.1-6.6,9.8l7.6,11.1h-10.2
					l-6.4-9.7h-3.9v9.7H541V342.5L541,342.5z M555.7,357.8c3,0,4.7-1.5,4.7-3.8v-0.1c0-2.5-1.8-3.8-4.8-3.8h-5.8v7.6H555.7
					L555.7,357.8z"/>
				<path class="st0" d="M572.7,358.5L572.7,358.5c0-9.2,7.4-16.7,17.2-16.7s17.1,7.3,17.1,16.5v0.1c0,9.2-7.4,16.6-17.2,16.6
					S572.7,367.7,572.7,358.5z M598,358.5L598,358.5c0-4.7-3.3-8.7-8.2-8.7s-8.1,3.9-8.1,8.5v0.1c0,4.6,3.3,8.6,8.2,8.6
					S598,363.1,598,358.5z"/>
				<path class="st0" d="M620.6,342.2h8.5l13.6,32.1h-9.5l-2.3-5.7h-12.3l-2.3,5.7H607L620.6,342.2L620.6,342.2z M628.3,361.8
					l-3.5-9.1l-3.6,9.1H628.3L628.3,361.8z"/>
				<path class="st0" d="M645.8,342.5h12.3c11.4,0,18,6.6,18,15.8v0.1c0,9.2-6.7,16-18.2,16h-12.1V342.5z M658.2,366.5
					c5.3,0,8.8-2.9,8.8-8.1v-0.1c0-5.1-3.5-8.1-8.8-8.1h-3.6v16.2H658.2z"/>
				<path class="st0" d="M676.7,342.5h9.3l5.6,18.5l6.2-18.5h7.6l6.2,18.5l5.5-18.5h9.2l-10.7,32.1h-7.7l-6.4-18.4l-6.4,18.4h-7.7
					L676.7,342.5L676.7,342.5z"/>
				<path class="st0" d="M729.9,342.5h8.9v31.9h-8.9V342.5z"/>
				<path class="st0" d="M744.6,342.5h8.2l13.1,16.9v-16.9h8.7v31.9h-7.8l-13.6-17.5v17.5h-8.7L744.6,342.5L744.6,342.5z"/>
				<path class="st0" d="M779.3,358.5L779.3,358.5c0-9.4,7.3-16.7,17.2-16.7c5.6,0,9.6,1.7,12.9,4.6l-5.2,6.2c-2.3-1.9-4.5-3-7.7-3
					c-4.6,0-8.2,3.9-8.2,8.7v0.1c0,5.1,3.6,8.8,8.7,8.8c2.1,0,3.8-0.5,5.1-1.3v-3.9h-6.3v-6.5h14.7v14.4c-3.4,2.8-8.1,4.9-13.8,4.9
					C786.7,375,779.3,368.2,779.3,358.5L779.3,358.5z"/>
				<path class="st0" d="M828,342.5h15.1c4.9,0,8.2,1.3,10.4,3.5c1.9,1.8,2.8,4.3,2.8,7.4v0.1c0,4.9-2.6,8.1-6.6,9.8l7.6,11.1h-10.2
					l-6.4-9.7h-3.9v9.7H828V342.5L828,342.5z M842.7,357.8c3,0,4.7-1.5,4.7-3.8v-0.1c0-2.5-1.8-3.8-4.8-3.8h-5.8v7.6H842.7
					L842.7,357.8z"/>
				<path class="st0" d="M860.8,342.5h25.6v7.5h-16.9v4.8h15.3v7h-15.3v5.1h17.1v7.5h-25.9V342.5z"/>
				<path class="st0" d="M889.8,358.5L889.8,358.5c0-9.4,7.2-16.7,16.8-16.7c6.5,0,10.7,2.7,13.5,6.6l-6.7,5.1
					c-1.8-2.3-3.9-3.7-7-3.7c-4.5,0-7.6,3.8-7.6,8.4v0.1c0,4.8,3.1,8.5,7.6,8.5c3.3,0,5.3-1.5,7.2-3.9l6.7,4.7
					c-3,4.1-7.1,7.2-14.1,7.2C897.2,375,889.8,368,889.8,358.5L889.8,358.5z"/>
				<path class="st0" d="M924.2,342.5h15.1c4.9,0,8.2,1.3,10.4,3.5c1.9,1.8,2.8,4.3,2.8,7.4v0.1c0,4.9-2.6,8.1-6.6,9.8l7.6,11.1
					h-10.2l-6.4-9.7H933v9.7h-8.8V342.5L924.2,342.5z M938.8,357.8c3,0,4.7-1.5,4.7-3.8v-0.1c0-2.5-1.8-3.8-4.8-3.8H933v7.6H938.8z"
					/>
				<path class="st0" d="M956.5,360.4v-17.9h9v17.7c0,4.6,2.3,6.8,5.9,6.8s5.9-2.1,5.9-6.6v-18h9v17.7c0,10.3-5.9,14.8-14.9,14.8
					S956.5,370.4,956.5,360.4L956.5,360.4z"/>
				<path class="st0" d="M991.6,342.5h8.9v31.9h-8.9V342.5z"/>
				<path class="st0" d="M1014.2,350.2h-9.6v-7.7h28v7.7h-9.6v24.1h-8.8V350.2L1014.2,350.2z"/>
				<path class="st0" d="M1036.4,342.5h9.3l7.6,12.3l7.6-12.3h9.3v31.9h-8.8v-18.3l-8.2,12.5h-0.2l-8.1-12.4v18.2h-8.7L1036.4,342.5
					L1036.4,342.5z"/>
				<path class="st0" d="M1076,342.5h25.6v7.5h-16.9v4.8h15.3v7h-15.3v5.1h17.1v7.5H1076V342.5z"/>
				<path class="st0" d="M1106.3,342.5h8.2l13.1,16.9v-16.9h8.7v31.9h-7.7l-13.6-17.5v17.5h-8.7V342.5z"/>
				<path class="st0" d="M1149.9,350.2h-9.6v-7.7h28v7.7h-9.6v24.1h-8.8L1149.9,350.2L1149.9,350.2z"/>
			</g>
		</g>
	</g>
</g>
</svg>
