<?xml version="1.0" encoding="utf-8"?>
<!-- Generator: Adobe Illustrator 26.1.0, SVG Export Plug-In . SVG Version: 6.00 Build 0)  -->
<svg version="1.1" id="Layer_1" xmlns="http://www.w3.org/2000/svg" xmlns:xlink="http://www.w3.org/1999/xlink" x="0px" y="0px"
	 viewBox="0 0 100 100" style="enable-background:new 0 0 100 100;" xml:space="preserve">
<style type="text/css">
	.st0{fill-rule:evenodd;clip-rule:evenodd;fill:#EC008C;}
</style>
<g>
	<g>
		<path class="st0" d="M99.6,61.9c-1.2-1.2-2.5-2.3-3.6-3.6c-2.5-3-4.1-6.5-5.3-10.2c-0.5-1.6-0.9-3.3-1.5-4.9
			c-0.5-1.5-1.3-1.9-2.8-1.7c-1.2,0.2-2.4,0.6-3.6,0.8c-2.6,0.4-5.2,0.7-7.8,1c-0.5,0.1-0.9,0.1-1.5,0.1l-0.3,0
			c-0.6,0.1-1.2,0-1.8,0l-1.5,0c-4.4,0-8.9,0-13.3,0l-3.2-8c0,0,0-0.1,0-0.1c0,0,0,0,0,0c0,0,0,0,0,0c0,0,0,0,0,0c0,0,0,0,0,0
			c0,0,0,0,0,0c0.9-2.9,1.6-5.8,0.3-8.8c-1.5,0.6-2.5,1.7-2.9,3.2c-0.3,0.8-0.4,1.6-0.3,2.5c0,0.2,0,0.4,0,0.5
			c-1.5-1.1-3-2.2-4.5-3.3c-0.1,0.1-0.1,0.2-0.1,0.2c0,0.1-0.1,0.2-0.1,0.3c-0.4,1.3-0.2,2.5,0.6,3.6c0.6,0.9,1.4,1.6,2.2,2.1
			c-2.5,1.5-5,3.1-7.6,4.6c-3.9,2.2-8.2,3.8-12.8,4.7c-3.9,0.7-6.4-0.2-9.1-3.3c-0.5-0.5-0.9-1.1-1.3-1.7c-0.9-1.1-1.9-2.2-2.8-3.3
			c-0.1,0-0.2,0-0.3,0c-0.3,2.2,0,4.4,0,6.6c0,2.2,0.1,4.4,0.1,6.8c-0.3-0.2-0.4-0.4-0.5-0.5C11,46,9,42.2,8,38
			c-0.8-3.1-1.2-6.3-1.8-9.5c-0.3-1.5-0.5-3-0.8-4.6c-1.1,0.8-2,1.6-2.4,2.6C-0.2,34.1-1,42,1.4,50.4c1.9,6.8,5.3,13,10.2,18.7
			c2.1,2.5,4.6,4.4,7.9,5.5c3.3,1,6.4,0.9,9.5,0.2c7.9-1.8,15.3-4.7,21.9-8.6c1.1,2.6,2.2,5.3,3.3,7.9c0.2,0.4,0.4,0.8,0.7,1.2
			c0.3,0.5,0.8,0.8,1.4,0.8c1.5,0,3.1,0.1,4.6,0.1c0.3,0,0.7,0,1.1,0c-0.1-0.7-0.2-1.2-0.3-1.8c0-0.6,0-1.2,0-1.8
			c6.5,1.6,12.9,1.4,19.2-0.6c0,1.1,0,2.2,0,3.4c1.3,0,2.5,0.1,3.8,0c2,0,3.3-1.1,4-2.9c0.5-1.2,1-2.3,1.3-3.6
			c0.6-2.6,1-5.2,1.5-7.8c0.2-0.8,0.3-1.6,0.5-2.5c0.9,0.6,1.7,1.2,2.5,1.8c1.2,0.8,2.4,1.6,3.9,2c0.6,0.1,1.2,0.2,1.8-0.1
			C99.8,62.1,99.7,62,99.6,61.9z M49,56.9c-1.4,0-2.6-1.2-2.5-2.6c0-1.4,1.2-2.6,2.6-2.5c1.4,0,2.6,1.2,2.5,2.6
			C51.6,55.8,50.5,56.9,49,56.9z"/>
	</g>
</g>
</svg>
